<mxfile host="app.diagrams.net" modified="2023-10-10T12:34:17.060Z" agent="Mozilla/5.0 (Windows NT 10.0; Win64; x64) AppleWebKit/537.36 (KHTML, like Gecko) Chrome/117.0.0.0 Safari/537.36 Edg/117.0.2045.60" etag="D_rHSgIBPRJUZr5sAE2e" version="22.0.4" type="device">
  <diagram name="Page-1" id="M7toEugl8Fssr2W5uFH1">
    <mxGraphModel dx="1386" dy="751" grid="1" gridSize="10" guides="1" tooltips="1" connect="1" arrows="1" fold="1" page="1" pageScale="1" pageWidth="827" pageHeight="1169" math="0" shadow="0">
      <root>
        <mxCell id="0" />
        <mxCell id="1" parent="0" />
        <mxCell id="IbWEe3e_3CBH4X82kUpH-1" value="personal fork" style="shape=cylinder3;whiteSpace=wrap;html=1;boundedLbl=1;backgroundOutline=1;size=15;" vertex="1" parent="1">
          <mxGeometry x="400" y="230" width="60" height="80" as="geometry" />
        </mxCell>
        <mxCell id="IbWEe3e_3CBH4X82kUpH-2" value="upstream" style="shape=cylinder3;whiteSpace=wrap;html=1;boundedLbl=1;backgroundOutline=1;size=15;" vertex="1" parent="1">
          <mxGeometry x="150" y="100" width="60" height="80" as="geometry" />
        </mxCell>
        <mxCell id="IbWEe3e_3CBH4X82kUpH-3" value="Staff" style="shape=umlActor;verticalLabelPosition=bottom;verticalAlign=top;html=1;outlineConnect=0;" vertex="1" parent="1">
          <mxGeometry x="110" y="260" width="30" height="60" as="geometry" />
        </mxCell>
        <mxCell id="IbWEe3e_3CBH4X82kUpH-5" value="Student" style="shape=umlActor;verticalLabelPosition=bottom;verticalAlign=top;html=1;outlineConnect=0;" vertex="1" parent="1">
          <mxGeometry x="399" y="390" width="30" height="60" as="geometry" />
        </mxCell>
        <mxCell id="IbWEe3e_3CBH4X82kUpH-6" value="" style="endArrow=classic;startArrow=classic;html=1;rounded=0;exitX=0.5;exitY=0;exitDx=0;exitDy=0;exitPerimeter=0;entryX=0.3;entryY=0.963;entryDx=0;entryDy=0;entryPerimeter=0;" edge="1" parent="1" source="IbWEe3e_3CBH4X82kUpH-3" target="IbWEe3e_3CBH4X82kUpH-2">
          <mxGeometry width="50" height="50" relative="1" as="geometry">
            <mxPoint x="390" y="410" as="sourcePoint" />
            <mxPoint x="440" y="360" as="targetPoint" />
          </mxGeometry>
        </mxCell>
        <mxCell id="IbWEe3e_3CBH4X82kUpH-18" value="Push/Pull" style="edgeLabel;html=1;align=center;verticalAlign=middle;resizable=0;points=[];" vertex="1" connectable="0" parent="IbWEe3e_3CBH4X82kUpH-6">
          <mxGeometry x="-0.0049" y="2" relative="1" as="geometry">
            <mxPoint x="1" as="offset" />
          </mxGeometry>
        </mxCell>
        <mxCell id="IbWEe3e_3CBH4X82kUpH-10" value="" style="endArrow=classic;html=1;entryX=1;entryY=1;entryDx=0;entryDy=-15;entryPerimeter=0;exitX=0;exitY=0;exitDx=0;exitDy=52.5;exitPerimeter=0;curved=1;dashed=1;dashPattern=8 8;" edge="1" parent="1" source="IbWEe3e_3CBH4X82kUpH-1" target="IbWEe3e_3CBH4X82kUpH-2">
          <mxGeometry width="50" height="50" relative="1" as="geometry">
            <mxPoint x="390" y="410" as="sourcePoint" />
            <mxPoint x="440" y="360" as="targetPoint" />
            <Array as="points">
              <mxPoint x="260" y="280" />
            </Array>
          </mxGeometry>
        </mxCell>
        <mxCell id="IbWEe3e_3CBH4X82kUpH-11" value="" style="endArrow=classic;startArrow=classic;html=1;rounded=0;entryX=0.5;entryY=1;entryDx=0;entryDy=0;entryPerimeter=0;exitX=0.5;exitY=0;exitDx=0;exitDy=0;exitPerimeter=0;" edge="1" parent="1" source="IbWEe3e_3CBH4X82kUpH-5" target="IbWEe3e_3CBH4X82kUpH-1">
          <mxGeometry width="50" height="50" relative="1" as="geometry">
            <mxPoint x="390" y="410" as="sourcePoint" />
            <mxPoint x="440" y="360" as="targetPoint" />
          </mxGeometry>
        </mxCell>
        <mxCell id="IbWEe3e_3CBH4X82kUpH-19" value="Push/Pull" style="edgeLabel;html=1;align=center;verticalAlign=middle;resizable=0;points=[];" vertex="1" connectable="0" parent="IbWEe3e_3CBH4X82kUpH-11">
          <mxGeometry x="0.0144" y="-3" relative="1" as="geometry">
            <mxPoint as="offset" />
          </mxGeometry>
        </mxCell>
        <mxCell id="IbWEe3e_3CBH4X82kUpH-14" value="" style="endArrow=classic;html=1;exitX=1;exitY=0;exitDx=0;exitDy=27.5;exitPerimeter=0;entryX=0;entryY=0;entryDx=0;entryDy=27.5;entryPerimeter=0;curved=1;" edge="1" parent="1" source="IbWEe3e_3CBH4X82kUpH-2" target="IbWEe3e_3CBH4X82kUpH-1">
          <mxGeometry width="50" height="50" relative="1" as="geometry">
            <mxPoint x="390" y="410" as="sourcePoint" />
            <mxPoint x="440" y="360" as="targetPoint" />
            <Array as="points">
              <mxPoint x="360" y="130" />
            </Array>
          </mxGeometry>
        </mxCell>
        <mxCell id="IbWEe3e_3CBH4X82kUpH-15" value="Pull and merge changes" style="text;html=1;strokeColor=none;fillColor=none;align=center;verticalAlign=middle;whiteSpace=wrap;rounded=0;rotation=45;" vertex="1" parent="1">
          <mxGeometry x="300" y="140" width="120" height="30" as="geometry" />
        </mxCell>
        <mxCell id="IbWEe3e_3CBH4X82kUpH-16" value="&quot;Pull Request&quot;" style="text;html=1;strokeColor=none;fillColor=none;align=center;verticalAlign=middle;whiteSpace=wrap;rounded=0;rotation=40;fontColor=#B3B3B3;" vertex="1" parent="1">
          <mxGeometry x="210" y="250" width="120" height="30" as="geometry" />
        </mxCell>
        <mxCell id="IbWEe3e_3CBH4X82kUpH-27" style="edgeStyle=orthogonalEdgeStyle;rounded=0;orthogonalLoop=1;jettySize=auto;html=1;exitX=0;exitY=0.5;exitDx=0;exitDy=0;entryX=0.5;entryY=0;entryDx=0;entryDy=0;" edge="1" parent="1" source="IbWEe3e_3CBH4X82kUpH-20" target="IbWEe3e_3CBH4X82kUpH-25">
          <mxGeometry relative="1" as="geometry" />
        </mxCell>
        <mxCell id="IbWEe3e_3CBH4X82kUpH-28" value="FALSE" style="edgeLabel;html=1;align=center;verticalAlign=middle;resizable=0;points=[];" vertex="1" connectable="0" parent="IbWEe3e_3CBH4X82kUpH-27">
          <mxGeometry x="-0.15" y="-1" relative="1" as="geometry">
            <mxPoint as="offset" />
          </mxGeometry>
        </mxCell>
        <mxCell id="IbWEe3e_3CBH4X82kUpH-20" value="Condition" style="rhombus;whiteSpace=wrap;html=1;" vertex="1" parent="1">
          <mxGeometry x="280" y="680" width="80" height="80" as="geometry" />
        </mxCell>
        <mxCell id="IbWEe3e_3CBH4X82kUpH-21" value="" style="endArrow=classic;html=1;rounded=0;entryX=0.5;entryY=0;entryDx=0;entryDy=0;" edge="1" parent="1" target="IbWEe3e_3CBH4X82kUpH-20">
          <mxGeometry width="50" height="50" relative="1" as="geometry">
            <mxPoint x="320" y="600" as="sourcePoint" />
            <mxPoint x="610" y="830" as="targetPoint" />
          </mxGeometry>
        </mxCell>
        <mxCell id="IbWEe3e_3CBH4X82kUpH-22" value="Condition A" style="rhombus;whiteSpace=wrap;html=1;" vertex="1" parent="1">
          <mxGeometry x="440" y="800" width="80" height="80" as="geometry" />
        </mxCell>
        <mxCell id="IbWEe3e_3CBH4X82kUpH-23" value="" style="endArrow=classic;html=1;rounded=0;exitX=1;exitY=0.5;exitDx=0;exitDy=0;entryX=0.5;entryY=0;entryDx=0;entryDy=0;" edge="1" parent="1" source="IbWEe3e_3CBH4X82kUpH-20" target="IbWEe3e_3CBH4X82kUpH-22">
          <mxGeometry width="50" height="50" relative="1" as="geometry">
            <mxPoint x="560" y="880" as="sourcePoint" />
            <mxPoint x="610" y="830" as="targetPoint" />
            <Array as="points">
              <mxPoint x="480" y="720" />
            </Array>
          </mxGeometry>
        </mxCell>
        <mxCell id="IbWEe3e_3CBH4X82kUpH-24" value="TRUE" style="edgeLabel;html=1;align=center;verticalAlign=middle;resizable=0;points=[];" vertex="1" connectable="0" parent="IbWEe3e_3CBH4X82kUpH-23">
          <mxGeometry x="-0.41" y="-1" relative="1" as="geometry">
            <mxPoint as="offset" />
          </mxGeometry>
        </mxCell>
        <mxCell id="IbWEe3e_3CBH4X82kUpH-25" value="Condition B" style="rhombus;whiteSpace=wrap;html=1;" vertex="1" parent="1">
          <mxGeometry x="120" y="800" width="80" height="80" as="geometry" />
        </mxCell>
        <mxCell id="IbWEe3e_3CBH4X82kUpH-29" value="B2" style="rounded=0;whiteSpace=wrap;html=1;" vertex="1" parent="1">
          <mxGeometry x="40" y="960" width="80" height="60" as="geometry" />
        </mxCell>
        <mxCell id="IbWEe3e_3CBH4X82kUpH-30" value="B1" style="rounded=0;whiteSpace=wrap;html=1;" vertex="1" parent="1">
          <mxGeometry x="200" y="960" width="80" height="60" as="geometry" />
        </mxCell>
        <mxCell id="IbWEe3e_3CBH4X82kUpH-31" value="A2" style="rounded=0;whiteSpace=wrap;html=1;" vertex="1" parent="1">
          <mxGeometry x="360" y="960" width="80" height="60" as="geometry" />
        </mxCell>
        <mxCell id="IbWEe3e_3CBH4X82kUpH-32" value="A1" style="rounded=0;whiteSpace=wrap;html=1;" vertex="1" parent="1">
          <mxGeometry x="520" y="960" width="80" height="60" as="geometry" />
        </mxCell>
        <mxCell id="IbWEe3e_3CBH4X82kUpH-33" value="" style="endArrow=classic;html=1;rounded=0;exitX=0;exitY=0.5;exitDx=0;exitDy=0;entryX=0.5;entryY=0;entryDx=0;entryDy=0;" edge="1" parent="1" source="IbWEe3e_3CBH4X82kUpH-25" target="IbWEe3e_3CBH4X82kUpH-29">
          <mxGeometry width="50" height="50" relative="1" as="geometry">
            <mxPoint x="220" y="880" as="sourcePoint" />
            <mxPoint x="270" y="830" as="targetPoint" />
            <Array as="points">
              <mxPoint x="80" y="840" />
            </Array>
          </mxGeometry>
        </mxCell>
        <mxCell id="IbWEe3e_3CBH4X82kUpH-34" value="FALSE" style="edgeLabel;html=1;align=center;verticalAlign=middle;resizable=0;points=[];" vertex="1" connectable="0" parent="IbWEe3e_3CBH4X82kUpH-33">
          <mxGeometry x="0.425" y="-1" relative="1" as="geometry">
            <mxPoint as="offset" />
          </mxGeometry>
        </mxCell>
        <mxCell id="IbWEe3e_3CBH4X82kUpH-35" value="" style="endArrow=classic;html=1;rounded=0;exitX=1;exitY=0.5;exitDx=0;exitDy=0;entryX=0.5;entryY=0;entryDx=0;entryDy=0;" edge="1" parent="1" source="IbWEe3e_3CBH4X82kUpH-25" target="IbWEe3e_3CBH4X82kUpH-30">
          <mxGeometry width="50" height="50" relative="1" as="geometry">
            <mxPoint x="220" y="880" as="sourcePoint" />
            <mxPoint x="270" y="830" as="targetPoint" />
            <Array as="points">
              <mxPoint x="240" y="840" />
            </Array>
          </mxGeometry>
        </mxCell>
        <mxCell id="IbWEe3e_3CBH4X82kUpH-36" value="TRUE" style="edgeLabel;html=1;align=center;verticalAlign=middle;resizable=0;points=[];" vertex="1" connectable="0" parent="IbWEe3e_3CBH4X82kUpH-35">
          <mxGeometry x="0.425" y="-1" relative="1" as="geometry">
            <mxPoint as="offset" />
          </mxGeometry>
        </mxCell>
        <mxCell id="IbWEe3e_3CBH4X82kUpH-37" value="" style="endArrow=classic;html=1;rounded=0;exitX=0;exitY=0.5;exitDx=0;exitDy=0;entryX=0.5;entryY=0;entryDx=0;entryDy=0;" edge="1" parent="1">
          <mxGeometry width="50" height="50" relative="1" as="geometry">
            <mxPoint x="440" y="840" as="sourcePoint" />
            <mxPoint x="400" y="960" as="targetPoint" />
            <Array as="points">
              <mxPoint x="400" y="840" />
            </Array>
          </mxGeometry>
        </mxCell>
        <mxCell id="IbWEe3e_3CBH4X82kUpH-38" value="FALSE" style="edgeLabel;html=1;align=center;verticalAlign=middle;resizable=0;points=[];" vertex="1" connectable="0" parent="IbWEe3e_3CBH4X82kUpH-37">
          <mxGeometry x="0.425" y="-1" relative="1" as="geometry">
            <mxPoint as="offset" />
          </mxGeometry>
        </mxCell>
        <mxCell id="IbWEe3e_3CBH4X82kUpH-39" value="" style="endArrow=classic;html=1;rounded=0;exitX=1;exitY=0.5;exitDx=0;exitDy=0;entryX=0.5;entryY=0;entryDx=0;entryDy=0;" edge="1" parent="1">
          <mxGeometry width="50" height="50" relative="1" as="geometry">
            <mxPoint x="520" y="840" as="sourcePoint" />
            <mxPoint x="560" y="960" as="targetPoint" />
            <Array as="points">
              <mxPoint x="560" y="840" />
            </Array>
          </mxGeometry>
        </mxCell>
        <mxCell id="IbWEe3e_3CBH4X82kUpH-40" value="TRUE" style="edgeLabel;html=1;align=center;verticalAlign=middle;resizable=0;points=[];" vertex="1" connectable="0" parent="IbWEe3e_3CBH4X82kUpH-39">
          <mxGeometry x="0.425" y="-1" relative="1" as="geometry">
            <mxPoint as="offset" />
          </mxGeometry>
        </mxCell>
        <mxCell id="IbWEe3e_3CBH4X82kUpH-41" value="next statement" style="rounded=0;whiteSpace=wrap;html=1;" vertex="1" parent="1">
          <mxGeometry x="260" y="1080" width="120" height="60" as="geometry" />
        </mxCell>
        <mxCell id="IbWEe3e_3CBH4X82kUpH-42" value="" style="endArrow=classic;html=1;rounded=0;exitX=0.5;exitY=1;exitDx=0;exitDy=0;dashed=1;" edge="1" parent="1" source="IbWEe3e_3CBH4X82kUpH-41">
          <mxGeometry width="50" height="50" relative="1" as="geometry">
            <mxPoint x="640" y="1340" as="sourcePoint" />
            <mxPoint x="320" y="1200" as="targetPoint" />
          </mxGeometry>
        </mxCell>
        <mxCell id="IbWEe3e_3CBH4X82kUpH-43" value="" style="endArrow=classic;html=1;rounded=0;exitX=0.5;exitY=1;exitDx=0;exitDy=0;entryX=0.25;entryY=0;entryDx=0;entryDy=0;" edge="1" parent="1" source="IbWEe3e_3CBH4X82kUpH-30" target="IbWEe3e_3CBH4X82kUpH-41">
          <mxGeometry width="50" height="50" relative="1" as="geometry">
            <mxPoint x="640" y="1230" as="sourcePoint" />
            <mxPoint x="690" y="1180" as="targetPoint" />
            <Array as="points">
              <mxPoint x="240" y="1060" />
              <mxPoint x="290" y="1060" />
            </Array>
          </mxGeometry>
        </mxCell>
        <mxCell id="IbWEe3e_3CBH4X82kUpH-44" value="" style="endArrow=classic;html=1;rounded=0;exitX=0.5;exitY=1;exitDx=0;exitDy=0;entryX=0.75;entryY=0;entryDx=0;entryDy=0;" edge="1" parent="1" source="IbWEe3e_3CBH4X82kUpH-31" target="IbWEe3e_3CBH4X82kUpH-41">
          <mxGeometry width="50" height="50" relative="1" as="geometry">
            <mxPoint x="640" y="1230" as="sourcePoint" />
            <mxPoint x="690" y="1180" as="targetPoint" />
            <Array as="points">
              <mxPoint x="400" y="1060" />
              <mxPoint x="350" y="1060" />
            </Array>
          </mxGeometry>
        </mxCell>
        <mxCell id="IbWEe3e_3CBH4X82kUpH-45" value="" style="endArrow=classic;html=1;rounded=0;exitX=0.5;exitY=1;exitDx=0;exitDy=0;entryX=0;entryY=0.5;entryDx=0;entryDy=0;" edge="1" parent="1" source="IbWEe3e_3CBH4X82kUpH-29" target="IbWEe3e_3CBH4X82kUpH-41">
          <mxGeometry width="50" height="50" relative="1" as="geometry">
            <mxPoint x="640" y="1230" as="sourcePoint" />
            <mxPoint x="690" y="1180" as="targetPoint" />
            <Array as="points">
              <mxPoint x="80" y="1110" />
            </Array>
          </mxGeometry>
        </mxCell>
        <mxCell id="IbWEe3e_3CBH4X82kUpH-46" value="" style="endArrow=classic;html=1;rounded=0;exitX=0.5;exitY=1;exitDx=0;exitDy=0;entryX=1;entryY=0.5;entryDx=0;entryDy=0;" edge="1" parent="1" source="IbWEe3e_3CBH4X82kUpH-32" target="IbWEe3e_3CBH4X82kUpH-41">
          <mxGeometry width="50" height="50" relative="1" as="geometry">
            <mxPoint x="560" y="1230" as="sourcePoint" />
            <mxPoint x="610" y="1180" as="targetPoint" />
            <Array as="points">
              <mxPoint x="560" y="1110" />
            </Array>
          </mxGeometry>
        </mxCell>
        <mxCell id="IbWEe3e_3CBH4X82kUpH-47" value="Condition 1" style="rhombus;whiteSpace=wrap;html=1;" vertex="1" parent="1">
          <mxGeometry x="80" y="1360" width="80" height="80" as="geometry" />
        </mxCell>
        <mxCell id="IbWEe3e_3CBH4X82kUpH-48" value="" style="endArrow=classic;html=1;rounded=0;entryX=0.5;entryY=0;entryDx=0;entryDy=0;" edge="1" parent="1" target="IbWEe3e_3CBH4X82kUpH-47">
          <mxGeometry width="50" height="50" relative="1" as="geometry">
            <mxPoint x="120" y="1280" as="sourcePoint" />
            <mxPoint x="410" y="1510" as="targetPoint" />
          </mxGeometry>
        </mxCell>
        <mxCell id="IbWEe3e_3CBH4X82kUpH-49" value="Condition 2" style="rhombus;whiteSpace=wrap;html=1;" vertex="1" parent="1">
          <mxGeometry x="280" y="1360" width="80" height="80" as="geometry" />
        </mxCell>
        <mxCell id="IbWEe3e_3CBH4X82kUpH-52" value="Path 2" style="rounded=0;whiteSpace=wrap;html=1;" vertex="1" parent="1">
          <mxGeometry x="280" y="1560" width="80" height="60" as="geometry" />
        </mxCell>
        <mxCell id="IbWEe3e_3CBH4X82kUpH-54" value="" style="endArrow=classic;html=1;rounded=0;entryX=0.5;entryY=0;entryDx=0;entryDy=0;exitX=0.5;exitY=1;exitDx=0;exitDy=0;" edge="1" parent="1" source="IbWEe3e_3CBH4X82kUpH-49" target="IbWEe3e_3CBH4X82kUpH-52">
          <mxGeometry width="50" height="50" relative="1" as="geometry">
            <mxPoint x="320" y="1480" as="sourcePoint" />
            <mxPoint x="320" y="1640" as="targetPoint" />
            <Array as="points">
              <mxPoint x="320" y="1520" />
            </Array>
          </mxGeometry>
        </mxCell>
        <mxCell id="IbWEe3e_3CBH4X82kUpH-55" value="TRUE" style="edgeLabel;html=1;align=center;verticalAlign=middle;resizable=0;points=[];" vertex="1" connectable="0" parent="IbWEe3e_3CBH4X82kUpH-54">
          <mxGeometry x="0.425" y="-1" relative="1" as="geometry">
            <mxPoint x="1" y="-26" as="offset" />
          </mxGeometry>
        </mxCell>
        <mxCell id="IbWEe3e_3CBH4X82kUpH-58" value="Path 1" style="rounded=0;whiteSpace=wrap;html=1;" vertex="1" parent="1">
          <mxGeometry x="80" y="1560" width="80" height="60" as="geometry" />
        </mxCell>
        <mxCell id="IbWEe3e_3CBH4X82kUpH-59" value="" style="endArrow=classic;html=1;rounded=0;exitX=0.5;exitY=1;exitDx=0;exitDy=0;entryX=0.5;entryY=0;entryDx=0;entryDy=0;" edge="1" parent="1" source="IbWEe3e_3CBH4X82kUpH-47" target="IbWEe3e_3CBH4X82kUpH-58">
          <mxGeometry width="50" height="50" relative="1" as="geometry">
            <mxPoint x="360" y="1570" as="sourcePoint" />
            <mxPoint x="410" y="1520" as="targetPoint" />
          </mxGeometry>
        </mxCell>
        <mxCell id="IbWEe3e_3CBH4X82kUpH-60" value="TRUE" style="edgeLabel;html=1;align=center;verticalAlign=middle;resizable=0;points=[];" vertex="1" connectable="0" parent="IbWEe3e_3CBH4X82kUpH-59">
          <mxGeometry x="-0.07" y="-1" relative="1" as="geometry">
            <mxPoint as="offset" />
          </mxGeometry>
        </mxCell>
        <mxCell id="IbWEe3e_3CBH4X82kUpH-72" value="" style="endArrow=classic;html=1;rounded=0;exitX=1;exitY=0.5;exitDx=0;exitDy=0;entryX=0;entryY=0.5;entryDx=0;entryDy=0;" edge="1" parent="1" source="IbWEe3e_3CBH4X82kUpH-47" target="IbWEe3e_3CBH4X82kUpH-49">
          <mxGeometry width="50" height="50" relative="1" as="geometry">
            <mxPoint x="560" y="1570" as="sourcePoint" />
            <mxPoint x="610" y="1520" as="targetPoint" />
          </mxGeometry>
        </mxCell>
        <mxCell id="IbWEe3e_3CBH4X82kUpH-73" value="FALSE&lt;br&gt;(&lt;b&gt;else if)&lt;/b&gt;" style="edgeLabel;html=1;align=center;verticalAlign=middle;resizable=0;points=[];" vertex="1" connectable="0" parent="IbWEe3e_3CBH4X82kUpH-72">
          <mxGeometry x="-0.05" y="-1" relative="1" as="geometry">
            <mxPoint as="offset" />
          </mxGeometry>
        </mxCell>
        <mxCell id="IbWEe3e_3CBH4X82kUpH-74" value="" style="endArrow=classic;html=1;rounded=0;exitX=1;exitY=0.5;exitDx=0;exitDy=0;entryX=0;entryY=0.5;entryDx=0;entryDy=0;" edge="1" target="IbWEe3e_3CBH4X82kUpH-76" parent="1">
          <mxGeometry width="50" height="50" relative="1" as="geometry">
            <mxPoint x="360" y="1400" as="sourcePoint" />
            <mxPoint x="810" y="1520" as="targetPoint" />
          </mxGeometry>
        </mxCell>
        <mxCell id="IbWEe3e_3CBH4X82kUpH-75" value="FALSE&lt;br&gt;(&lt;b&gt;else if)&lt;/b&gt;" style="edgeLabel;html=1;align=center;verticalAlign=middle;resizable=0;points=[];" vertex="1" connectable="0" parent="IbWEe3e_3CBH4X82kUpH-74">
          <mxGeometry x="-0.05" y="-1" relative="1" as="geometry">
            <mxPoint as="offset" />
          </mxGeometry>
        </mxCell>
        <mxCell id="IbWEe3e_3CBH4X82kUpH-76" value="Condition 3" style="rhombus;whiteSpace=wrap;html=1;" vertex="1" parent="1">
          <mxGeometry x="480" y="1360" width="80" height="80" as="geometry" />
        </mxCell>
        <mxCell id="IbWEe3e_3CBH4X82kUpH-77" value="" style="endArrow=classic;html=1;rounded=0;entryX=0.5;entryY=0;entryDx=0;entryDy=0;exitX=0.5;exitY=1;exitDx=0;exitDy=0;" edge="1" source="IbWEe3e_3CBH4X82kUpH-76" target="IbWEe3e_3CBH4X82kUpH-79" parent="1">
          <mxGeometry width="50" height="50" relative="1" as="geometry">
            <mxPoint x="520" y="1480" as="sourcePoint" />
            <mxPoint x="520" y="1640" as="targetPoint" />
            <Array as="points">
              <mxPoint x="520" y="1520" />
            </Array>
          </mxGeometry>
        </mxCell>
        <mxCell id="IbWEe3e_3CBH4X82kUpH-78" value="TRUE" style="edgeLabel;html=1;align=center;verticalAlign=middle;resizable=0;points=[];" vertex="1" connectable="0" parent="IbWEe3e_3CBH4X82kUpH-77">
          <mxGeometry x="0.425" y="-1" relative="1" as="geometry">
            <mxPoint x="1" y="-26" as="offset" />
          </mxGeometry>
        </mxCell>
        <mxCell id="IbWEe3e_3CBH4X82kUpH-79" value="Path 3" style="rounded=0;whiteSpace=wrap;html=1;" vertex="1" parent="1">
          <mxGeometry x="480" y="1560" width="80" height="60" as="geometry" />
        </mxCell>
        <mxCell id="IbWEe3e_3CBH4X82kUpH-80" value="" style="endArrow=classic;html=1;rounded=0;entryX=0.5;entryY=0;entryDx=0;entryDy=0;exitX=1;exitY=0.5;exitDx=0;exitDy=0;" edge="1" target="IbWEe3e_3CBH4X82kUpH-82" parent="1" source="IbWEe3e_3CBH4X82kUpH-76">
          <mxGeometry width="50" height="50" relative="1" as="geometry">
            <mxPoint x="680" y="1440" as="sourcePoint" />
            <mxPoint x="680" y="1640" as="targetPoint" />
            <Array as="points">
              <mxPoint x="680" y="1400" />
              <mxPoint x="720" y="1400" />
            </Array>
          </mxGeometry>
        </mxCell>
        <mxCell id="IbWEe3e_3CBH4X82kUpH-86" value="FALSE&lt;br&gt;(&lt;b&gt;else)&lt;/b&gt;" style="edgeLabel;html=1;align=center;verticalAlign=middle;resizable=0;points=[];" vertex="1" connectable="0" parent="IbWEe3e_3CBH4X82kUpH-80">
          <mxGeometry x="-0.6071" y="-1" relative="1" as="geometry">
            <mxPoint as="offset" />
          </mxGeometry>
        </mxCell>
        <mxCell id="IbWEe3e_3CBH4X82kUpH-82" value="Path 4" style="rounded=0;whiteSpace=wrap;html=1;" vertex="1" parent="1">
          <mxGeometry x="680" y="1560" width="80" height="60" as="geometry" />
        </mxCell>
      </root>
    </mxGraphModel>
  </diagram>
</mxfile>
